<svg width="32" height="32" viewBox="0 0 32 32" fill="none" xmlns="http://www.w3.org/2000/svg">
<path d="M16 2.66667C13.3629 2.66667 10.7851 3.44866 8.5924 4.91374C6.39974 6.37883 4.69078 8.46121 3.68161 10.8976C2.67244 13.3339 2.4084 16.0148 2.92287 18.6012C3.43734 21.1876 4.70721 23.5634 6.57191 25.4281C8.43661 27.2928 10.8124 28.5627 13.3988 29.0771C15.9852 29.5916 18.6661 29.3276 21.1025 28.3184C23.5388 27.3092 25.6212 25.6003 27.0863 23.4076C28.5513 21.215 29.3333 18.6371 29.3333 16C29.3333 14.249 28.9885 12.5152 28.3184 10.8976C27.6483 9.27988 26.6662 7.81003 25.4281 6.57191C24.19 5.3338 22.7201 4.35167 21.1025 3.68161C19.4848 3.01155 17.751 2.66667 16 2.66667ZM16 5.33334C18.7396 5.33225 21.373 6.39325 23.3467 8.29334C21.3094 9.48827 19.1505 10.4627 16.9067 11.2C15.79 9.27577 14.5097 7.45126 13.08 5.74667C14.0293 5.47334 15.0122 5.33421 16 5.33334ZM10.52 6.86667C11.9169 8.46468 13.1706 10.1824 14.2667 12C11.6495 12.6499 8.96334 12.9812 6.26667 12.9867H5.78667C6.54294 10.4262 8.23192 8.24241 10.52 6.86667ZM8 23.08C6.26501 21.1317 5.31478 18.6088 5.33334 16C5.33334 15.8667 5.33334 15.7333 5.33334 15.6133H6.24C9.3965 15.5851 12.5352 15.1367 15.5733 14.28C16 15.0933 16.4 15.9333 16.7867 16.8C14.7087 17.5326 12.7733 18.6198 11.0667 20.0133L10.6667 20.3333C9.71616 21.187 8.82519 22.1047 8 23.08ZM16 26.6667C13.8748 26.6714 11.7976 26.0348 10.04 24.84C10.6891 24.0955 11.3838 23.3919 12.12 22.7333L12.5467 22.3733C14.1242 21.0465 15.932 20.0206 17.88 19.3467C18.6818 21.5147 19.3061 23.7442 19.7467 26.0133C18.5464 26.4516 17.2778 26.6728 16 26.6667ZM22.1733 24.68C21.7371 22.6621 21.167 20.6755 20.4667 18.7333H20.92C20.9725 18.7204 21.0275 18.7204 21.08 18.7333H21.2267H21.36H22C23.4031 18.7374 24.7957 18.9762 26.12 19.44C25.3924 21.5605 24.0105 23.3953 22.1733 24.68ZM22 16C21.72 16 21.44 16 21.1733 16C21.0007 15.9783 20.826 15.9783 20.6533 16C20.2909 16.0223 19.9303 16.0668 19.5733 16.1333H19.44C19.0533 15.24 18.6533 14.3733 18.2133 13.4667C20.6008 12.6467 22.8939 11.574 25.0533 10.2667C26.1246 11.9858 26.6842 13.9745 26.6667 16C26.6667 16.2267 26.6667 16.4533 26.6667 16.68C25.1556 16.2136 23.5813 15.9842 22 16Z" fill="#FF9E2D"/>
</svg>
