<svg width="32" height="32" viewBox="0 0 32 32" fill="none" xmlns="http://www.w3.org/2000/svg">
<path d="M25.3333 5.33333H6.66667C5.60581 5.33333 4.58839 5.75476 3.83824 6.5049C3.0881 7.25505 2.66667 8.27246 2.66667 9.33333V22.6667C2.66667 23.7275 3.0881 24.7449 3.83824 25.4951C4.58839 26.2452 5.60581 26.6667 6.66667 26.6667H25.3333C26.3942 26.6667 27.4116 26.2452 28.1618 25.4951C28.9119 24.7449 29.3333 23.7275 29.3333 22.6667V9.33333C29.3333 8.27246 28.9119 7.25505 28.1618 6.5049C27.4116 5.75476 26.3942 5.33333 25.3333 5.33333ZM24.7867 7.99999L16.9467 15.84C16.8227 15.965 16.6753 16.0642 16.5128 16.1318C16.3503 16.1995 16.176 16.2344 16 16.2344C15.824 16.2344 15.6497 16.1995 15.4872 16.1318C15.3248 16.0642 15.1773 15.965 15.0533 15.84L7.21334 7.99999H24.7867ZM26.6667 22.6667C26.6667 23.0203 26.5262 23.3594 26.2761 23.6095C26.0261 23.8595 25.687 24 25.3333 24H6.66667C6.31305 24 5.97391 23.8595 5.72386 23.6095C5.47381 23.3594 5.33334 23.0203 5.33334 22.6667V9.87999L13.1733 17.72C13.9233 18.4691 14.94 18.8898 16 18.8898C17.06 18.8898 18.0767 18.4691 18.8267 17.72L26.6667 9.87999V22.6667Z" fill="#FF9E2D"/>
</svg>
