<svg width="32" height="32" viewBox="0 0 32 32" fill="none" xmlns="http://www.w3.org/2000/svg">
<path d="M23.12 7.28001C22.8036 7.28001 22.4942 7.37384 22.2311 7.54965C21.968 7.72546 21.7629 7.97535 21.6418 8.26771C21.5207 8.56007 21.489 8.88178 21.5507 9.19215C21.6125 9.50252 21.7649 9.78761 21.9886 10.0114C22.2124 10.2351 22.4975 10.3875 22.8079 10.4493C23.1182 10.511 23.4399 10.4793 23.7323 10.3582C24.0247 10.2371 24.2745 10.032 24.4504 9.76892C24.6262 9.5058 24.72 9.19646 24.72 8.88C24.72 8.45566 24.5514 8.04869 24.2514 7.74863C23.9513 7.44858 23.5444 7.28001 23.12 7.28001ZM29.2533 10.5067C29.2274 9.4004 29.0202 8.30588 28.64 7.26667C28.301 6.37752 27.7733 5.57238 27.0933 4.90667C26.4331 4.22324 25.6261 3.69891 24.7333 3.37334C23.6969 2.98155 22.6011 2.76962 21.4933 2.74667C20.08 2.66667 19.6267 2.66667 16 2.66667C12.3733 2.66667 11.92 2.66667 10.5067 2.74667C9.39888 2.76962 8.30313 2.98155 7.26667 3.37334C6.37557 3.7022 5.56925 4.22609 4.90667 4.90667C4.22324 5.56691 3.69891 6.37392 3.37334 7.26667C2.98155 8.30313 2.76962 9.39888 2.74667 10.5067C2.66667 11.92 2.66667 12.3733 2.66667 16C2.66667 19.6267 2.66667 20.08 2.74667 21.4933C2.76962 22.6011 2.98155 23.6969 3.37334 24.7333C3.69891 25.6261 4.22324 26.4331 4.90667 27.0933C5.56925 27.7739 6.37557 28.2978 7.26667 28.6267C8.30313 29.0185 9.39888 29.2304 10.5067 29.2533C11.92 29.3333 12.3733 29.3333 16 29.3333C19.6267 29.3333 20.08 29.3333 21.4933 29.2533C22.6011 29.2304 23.6969 29.0185 24.7333 28.6267C25.6261 28.3011 26.4331 27.7768 27.0933 27.0933C27.7763 26.4301 28.3045 25.6243 28.64 24.7333C29.0202 23.6941 29.2274 22.5996 29.2533 21.4933C29.2533 20.08 29.3333 19.6267 29.3333 16C29.3333 12.3733 29.3333 11.92 29.2533 10.5067ZM26.8533 21.3333C26.8436 22.1797 26.6903 23.0183 26.4 23.8133C26.1871 24.3936 25.8452 24.9179 25.4 25.3467C24.9675 25.7873 24.4443 26.1286 23.8667 26.3467C23.0716 26.637 22.233 26.7903 21.3867 26.8C20.0533 26.8667 19.56 26.88 16.0533 26.88C12.5467 26.88 12.0533 26.88 10.72 26.8C9.84119 26.8165 8.96613 26.6811 8.13334 26.4C7.58105 26.1708 7.08181 25.8304 6.66667 25.4C6.22412 24.9717 5.88646 24.4469 5.68001 23.8667C5.35448 23.0602 5.17393 22.2026 5.14667 21.3333C5.14667 20 5.06667 19.5067 5.06667 16C5.06667 12.4933 5.06667 12 5.14667 10.6667C5.15265 9.80141 5.31061 8.94393 5.61334 8.13334C5.84807 7.57055 6.20836 7.06888 6.66667 6.66667C7.07176 6.20823 7.57239 5.84413 8.13334 5.6C8.94607 5.30673 9.80267 5.15344 10.6667 5.14667C12 5.14667 12.4933 5.06667 16 5.06667C19.5067 5.06667 20 5.06667 21.3333 5.14667C22.1797 5.15638 23.0183 5.30967 23.8133 5.6C24.4192 5.82487 24.9631 6.19047 25.4 6.66667C25.8369 7.07624 26.1784 7.57698 26.4 8.13334C26.6963 8.94525 26.8497 9.80238 26.8533 10.6667C26.92 12 26.9333 12.4933 26.9333 16C26.9333 19.5067 26.92 20 26.8533 21.3333ZM16 9.16001C14.6478 9.16264 13.3266 9.56604 12.2035 10.3192C11.0805 11.0724 10.2058 12.1416 9.69018 13.3917C9.17452 14.6418 9.04097 16.0166 9.3064 17.3426C9.57182 18.6685 10.2243 19.8861 11.1814 20.8413C12.1386 21.7966 13.3574 22.4467 14.6838 22.7095C16.0103 22.9724 17.3849 22.8361 18.634 22.3181C19.883 21.8 20.9505 20.9233 21.7015 19.7987C22.4525 18.6742 22.8533 17.3523 22.8533 16C22.8551 15.1001 22.6789 14.2088 22.335 13.3773C21.991 12.5457 21.4861 11.7904 20.8492 11.1547C20.2122 10.5191 19.4559 10.0156 18.6237 9.67324C17.7915 9.33091 16.8999 9.15649 16 9.16001ZM16 20.44C15.1219 20.44 14.2634 20.1796 13.5333 19.6917C12.8031 19.2039 12.234 18.5104 11.898 17.6991C11.5619 16.8878 11.474 15.9951 11.6453 15.1338C11.8166 14.2725 12.2395 13.4814 12.8605 12.8605C13.4814 12.2395 14.2725 11.8166 15.1338 11.6453C15.9951 11.474 16.8878 11.5619 17.6991 11.898C18.5104 12.234 19.2039 12.8031 19.6917 13.5333C20.1796 14.2634 20.44 15.1219 20.44 16C20.44 16.5831 20.3252 17.1604 20.102 17.6991C19.8789 18.2378 19.5519 18.7273 19.1396 19.1396C18.7273 19.5519 18.2378 19.8789 17.6991 20.102C17.1604 20.3252 16.5831 20.44 16 20.44Z" fill="#FF9E2D"/>
</svg>
