<svg width="32" height="32" viewBox="0 0 32 32" fill="none" xmlns="http://www.w3.org/2000/svg">
<path d="M29.3333 7.73334C28.3311 8.16813 27.2712 8.45556 26.1867 8.58667C27.3309 7.9031 28.1884 6.82771 28.6 5.56C27.5247 6.20009 26.3477 6.65107 25.12 6.89334C24.2994 6.00343 23.2066 5.41107 22.0131 5.20914C20.8195 5.00721 19.5927 5.20715 18.5251 5.77759C17.4574 6.34803 16.6092 7.25671 16.1137 8.36112C15.6181 9.46553 15.5031 10.7032 15.7867 11.88C13.6126 11.77 11.4859 11.2039 9.54487 10.2185C7.60382 9.23303 5.8918 7.85026 4.52 6.16C4.03885 7.00023 3.78603 7.95177 3.78667 8.92C3.78496 9.81918 4.00562 10.7048 4.42901 11.4981C4.85239 12.2914 5.46536 12.9676 6.21333 13.4667C5.34397 13.443 4.49318 13.2097 3.73333 12.7867V12.8533C3.73985 14.1132 4.18133 15.3321 4.98309 16.304C5.78485 17.2758 6.89768 17.9409 8.13333 18.1867C7.65767 18.3314 7.16383 18.4077 6.66667 18.4133C6.32252 18.4093 5.97923 18.3781 5.64 18.32C5.99188 19.4038 6.67283 20.3509 7.5881 21.0296C8.50337 21.7082 9.60744 22.0847 10.7467 22.1067C8.82294 23.6204 6.44784 24.4465 4 24.4533C3.55431 24.4548 3.10898 24.4281 2.66667 24.3733C5.1659 25.987 8.07842 26.8436 11.0533 26.84C13.1063 26.8613 15.1428 26.4734 17.0442 25.6988C18.9455 24.9242 20.6734 23.7785 22.1269 22.3287C23.5805 20.8788 24.7306 19.1539 25.5101 17.2545C26.2895 15.3552 26.6827 13.3196 26.6667 11.2667C26.6667 11.04 26.6667 10.8 26.6667 10.56C27.7129 9.77975 28.6153 8.82324 29.3333 7.73334Z" fill="#FF9E2D"/>
</svg>
