<svg width="32" height="32" viewBox="0 0 32 32" fill="none" xmlns="http://www.w3.org/2000/svg">
<path d="M22.1333 18.6667C21.8667 18.5333 20.1333 17.7333 19.8667 17.6C19.6 17.4667 19.3333 17.4667 19.0667 17.7333C18.8 18 18.2667 18.8 18 19.0667C17.8667 19.3333 17.6 19.3333 17.3333 19.2C16.4 18.8 15.4667 18.2667 14.6667 17.6C14 16.9333 13.3333 16.1333 12.8 15.3333C12.6667 15.0667 12.8 14.8 12.9333 14.6667C13.0667 14.5333 13.2 14.2667 13.4667 14.1333C13.6 14 13.7333 13.7333 13.7333 13.6C13.8667 13.4667 13.8667 13.2 13.7333 13.0667C13.6 12.9333 12.9333 11.3333 12.6667 10.6667C12.5333 9.73333 12.2667 9.73333 12 9.73333C11.8667 9.73333 11.6 9.73333 11.3333 9.73333C11.0667 9.73333 10.6667 10 10.5333 10.1333C9.73333 10.9333 9.33333 11.8667 9.33333 12.9333C9.46666 14.1333 9.86666 15.3333 10.6667 16.4C12.1333 18.5333 14 20.2667 16.2667 21.3333C16.9333 21.6 17.4667 21.8667 18.1333 22C18.8 22.2667 19.4667 22.2667 20.2667 22.1333C21.2 22 22 21.3333 22.5333 20.5333C22.8 20 22.8 19.4667 22.6667 18.9333C22.6667 18.9333 22.4 18.8 22.1333 18.6667ZM25.4667 6.53333C20.2667 1.33333 11.8667 1.33333 6.66666 6.53333C2.4 10.8 1.6 17.3333 4.53333 22.5333L2.66666 29.3333L9.73333 27.4667C11.7333 28.5333 13.8667 29.0667 16 29.0667C23.3333 29.0667 29.2 23.2 29.2 15.8667C29.3333 12.4 27.8667 9.06666 25.4667 6.53333ZM21.8667 25.2C20.1333 26.2667 18.1333 26.9333 16 26.9333C14 26.9333 12.1333 26.4 10.4 25.4667L10 25.2L5.86666 26.2667L6.93333 22.2667L6.66666 21.8667C3.46666 16.5333 5.06666 9.86666 10.2667 6.53333C15.4667 3.2 22.1333 4.93333 25.3333 10C28.5333 15.2 27.0667 22 21.8667 25.2Z" fill="#FF9E2D"/>
</svg>
