<svg width="1424" height="304" viewBox="0 0 1424 304" fill="none" xmlns="http://www.w3.org/2000/svg">
<path opacity="0.7" fill-rule="evenodd" clip-rule="evenodd" d="M0 261.118L34 252.655C69 244.193 137 226.06 206 234.522C274 244.193 343 278.042 411 252.655C480 226.06 549 139.021 617 139.021C686 139.021 754 226.06 823 269.58C891 313.099 960 313.099 1029 278.042C1097 244.193 1166 174.078 1234 157.154C1303 139.021 1371 174.078 1406 191.003L1440 209.136V0H1406C1371 0 1303 0 1234 0C1166 0 1097 0 1029 0C960 0 891 0 823 0C754 0 686 0 617 0C549 0 480 0 411 0C343 0 274 0 206 0C137 0 69 0 34 0H0V261.118Z" fill="#23A036"/>
</svg>
