<svg width="1440" height="608" viewBox="0 0 1440 608" fill="none" xmlns="http://www.w3.org/2000/svg">
<path fill-rule="evenodd" clip-rule="evenodd" d="M1440 0H0V304.637V447.285V565.755L34 557.293C35.977 556.815 38.0593 556.306 40.2412 555.773C76.6853 546.867 140.898 531.175 206 539.159C225.626 541.951 245.336 546.756 265.08 551.57C313.746 563.435 362.626 575.352 411 557.293C439.422 546.338 467.845 525.126 496.198 503.967C528.268 480.033 560.25 456.166 592.041 447.285H642.132C679.478 457.73 716.601 489.151 753.821 520.655C776.818 540.121 799.853 559.618 823 574.217C891 617.737 960 617.737 1029 582.679C1056.46 569.008 1084.09 549.422 1111.75 529.813C1152.57 500.871 1193.46 471.88 1234 461.791C1300.4 444.341 1365.88 476.15 1401.91 493.654C1403.32 494.339 1404.68 495.002 1406 495.64L1440 513.773V447.285V304.637V0Z" fill="#6ECD7C"/>
</svg>
