<svg width="1440" height="340" viewBox="0 0 1440 340" fill="none" xmlns="http://www.w3.org/2000/svg">
<path fill-rule="evenodd" clip-rule="evenodd" d="M34.8 11.8333L0 0V131V142V340H1440V142V131V17.75L1405.2 14.7917C1371.6 11.8333 1303.2 5.91667 1234.8 8.875C1165.2 11.8333 1096.8 23.6667 1028.4 41.4167C1017 44.375 1005.6 47.4977 994.2 50.6203C937.2 66.2338 880.2 81.8472 823.2 76.9167C789 73.9583 754.5 63.6042 720 53.25C685.5 42.8958 651 32.5417 616.8 29.5833C567.943 25.3571 519.086 36.2245 470.229 47.0918C450.686 51.4388 431.143 55.7857 411.6 59.1667C343.2 71 274.8 71 205.2 59.1667C136.8 47.3333 68.4 23.6667 34.8 11.8333Z" fill="#6ECD7C"/>
</svg>
